<svg xmlns="http://www.w3.org/2000/svg" xmlns:xlink="http://www.w3.org/1999/xlink" version="1.1" width="256" height="256" viewBox="0 0 256 256" xml:space="preserve">

<defs>
</defs>
<g style="stroke: none; stroke-width: 0; stroke-dasharray: none; stroke-linecap: butt; stroke-linejoin: miter; stroke-miterlimit: 10; fill: none; fill-rule: nonzero; opacity: 1;" transform="translate(1.4065934065934016 1.4065934065934016) scale(2.81 2.81)" >
	<rect x="35.81" y="24.33" rx="0" ry="0" width="53.19" height="41.33" style="stroke: none; stroke-width: 1; stroke-dasharray: none; stroke-linecap: butt; stroke-linejoin: miter; stroke-miterlimit: 10; fill: rgb(234,176,129); fill-rule: nonzero; opacity: 1;" transform=" matrix(1 0 0 1 0 0) "/>
	<path d="M 89 66.667 H 35.811 c -0.552 0 -1 -0.447 -1 -1 V 24.333 c 0 -0.552 0.448 -1 1 -1 H 89 c 0.553 0 1 0.448 1 1 v 41.334 C 90 66.22 89.553 66.667 89 66.667 z M 36.811 64.667 H 88 V 25.333 H 36.811 V 64.667 z" style="stroke: none; stroke-width: 1; stroke-dasharray: none; stroke-linecap: butt; stroke-linejoin: miter; stroke-miterlimit: 10; fill: rgb(0,0,0); fill-rule: nonzero; opacity: 1;" transform=" matrix(1 0 0 1 0 0) " stroke-linecap="round" />
	<polygon points="71.67,39.01 62.41,36.11 53.14,39.01 53.14,24.33 71.67,24.33 " style="stroke: none; stroke-width: 1; stroke-dasharray: none; stroke-linecap: butt; stroke-linejoin: miter; stroke-miterlimit: 10; fill: rgb(229,76,76); fill-rule: nonzero; opacity: 1;" transform="  matrix(1 0 0 1 0 0) "/>
	<path d="M 71.673 40.014 c -0.101 0 -0.201 -0.015 -0.299 -0.046 l -8.969 -2.809 l -8.969 2.809 c -0.302 0.096 -0.634 0.041 -0.891 -0.148 c -0.257 -0.188 -0.408 -0.487 -0.408 -0.806 V 24.333 c 0 -0.552 0.447 -1 1 -1 h 18.535 c 0.553 0 1 0.448 1 1 v 14.681 c 0 0.318 -0.151 0.618 -0.408 0.806 C 72.091 39.947 71.883 40.014 71.673 40.014 z M 62.405 35.111 c 0.101 0 0.201 0.015 0.299 0.046 l 7.969 2.496 V 25.333 H 54.138 v 12.319 l 7.969 -2.496 C 62.204 35.126 62.305 35.111 62.405 35.111 z" style="stroke: none; stroke-width: 1; stroke-dasharray: none; stroke-linecap: butt; stroke-linejoin: miter; stroke-miterlimit: 10; fill: rgb(0,0,0); fill-rule: nonzero; opacity: 1;" transform=" matrix(1 0 0 1 0 0) " stroke-linecap="round" />
	<path d="M 27.943 55.215 h -16.79 c -0.552 0 -1 -0.447 -1 -1 s 0.448 -1 1 -1 h 16.79 c 0.552 0 1 0.447 1 1 S 28.495 55.215 27.943 55.215 z" style="stroke: none; stroke-width: 1; stroke-dasharray: none; stroke-linecap: butt; stroke-linejoin: miter; stroke-miterlimit: 10; fill: rgb(0,0,0); fill-rule: nonzero; opacity: 1;" transform=" matrix(1 0 0 1 0 0) " stroke-linecap="round" />
	<path d="M 27.943 46 H 5.823 c -0.552 0 -1 -0.448 -1 -1 s 0.448 -1 1 -1 h 22.12 c 0.552 0 1 0.448 1 1 S 28.495 46 27.943 46 z" style="stroke: none; stroke-width: 1; stroke-dasharray: none; stroke-linecap: butt; stroke-linejoin: miter; stroke-miterlimit: 10; fill: rgb(0,0,0); fill-rule: nonzero; opacity: 1;" transform=" matrix(1 0 0 1 0 0) " stroke-linecap="round" />
	<path d="M 27.943 36.786 H 1 c -0.552 0 -1 -0.448 -1 -1 s 0.448 -1 1 -1 h 26.943 c 0.552 0 1 0.448 1 1 S 28.495 36.786 27.943 36.786 z" style="stroke: none; stroke-width: 1; stroke-dasharray: none; stroke-linecap: butt; stroke-linejoin: miter; stroke-miterlimit: 10; fill: rgb(0,0,0); fill-rule: nonzero; opacity: 1;" transform=" matrix(1 0 0 1 0 0) " stroke-linecap="round" />
</g>
</svg>